<svg xmlns="http://www.w3.org/2000/svg" shape-rendering="geometricPrecision" text-rendering="geometricPrecision" image-rendering="optimizeQuality" fill-rule="evenodd" clip-rule="evenodd" viewBox="0 0 512 512.017"><path fill="#fff" fill-rule="nonzero" d="M478.505 191.408h-31.098c-16.747 0-31.107-14.36-31.107-31.108C416.3 71.772 344.519 0 256 0l-95.7.009C71.772.009 0 71.79 0 160.309v191.408c0 88.528 71.781 160.3 160.3 160.3l191.399-.009c88.528 0 160.301-71.781 160.301-160.3V224.902c0-19.144-14.361-33.494-33.495-33.494zm-320.601-62.205h114.843c16.747 0 31.107 14.359 31.107 31.106 0 16.748-14.36 31.108-31.107 31.108l-114.843-.009c-16.747 0-31.107-14.36-31.107-31.108 0-16.747 14.36-31.106 31.107-31.106v.009zm196.191 253.612H160.3c-16.747 0-31.106-14.36-31.106-31.107s14.359-31.107 31.106-31.107l193.795.009c16.747 0 31.107 14.36 31.107 31.107s-14.36 31.107-31.107 31.107v-.009z"/></svg>